<svg xmlns="http://www.w3.org/2000/svg" width="250" height="39" viewBox="0 0 250 39">
    <g fill="#000" fill-rule="evenodd">
        <path d="M3.822 38.904h1.34V0h-1.34zM8.377 38.904h.67V0h-.67zM10.46 38.904h.67V0h-.67zM2.042 38.904h.533V0h-.533zM0 38.904h.533V0H0zM13.785 38.904h.67V0h-.67zM146.268 38.904h.67V0h-.67zM199.087 38.904h.671V0h-.67zM131.267 38.904h.671V0h-.67zM134.53 38.904h.671V0h-.67zM137.467 38.904h.268V0h-.268zM116.472 38.904h.67V0h-.67zM119.735 38.904h.67V0h-.67zM123.47 38.904h.268V0h-.268zM23.605 38.904h1.341V0h-1.34zM18.32 38.904h2.415V0H18.32zM44.916 38.904h1.341V0h-1.34zM60.04 38.904h2.415V0H60.04zM97.314 38.904h2.683V0h-2.683zM111.82 38.904h1.34V0h-1.34zM107.472 38.904h.402V0h-.402zM102.963 38.904h.402V0h-.402zM33.51 38.904h.67V0h-.67zM39.97 38.904h.403V0h-.403zM36.807 38.904h.402V0h-.402zM52.29 38.904h.402V0h-.402zM55.72 38.904h.67V0h-.67zM63.61 38.904h.402V0h-.403zM65.257 38.904h.67V0h-.67zM49.126 38.904h.403V0h-.403zM41.64 38.904h1.333V0H41.64zM30.19 38.904h.671V0h-.67zM27.236 38.904h.939V0h-.94zM126.907 38.904h1.341V0h-1.341zM71.532 38.904h.67V0h-.67zM74.795 38.904h.67V0h-.67zM82.645 38.904h1.207V0h-1.207zM87.154 38.904h1.207V0h-1.207zM85.168 38.904h.67V0h-.67zM77.731 38.904H78V0h-.269zM90.818 38.904h.268V0h-.268zM93.072 38.904h.269V0h-.269zM104.53 38.904h.268V0h-.268zM109.369 38.904h.67V0h-.67zM67.171 38.904h1.341V0h-1.34zM140.623 38.904h1.342V0h-1.342zM151.242 38.904h1.34V0h-1.34zM148.141 38.904h1.341V0h-1.34zM156.128 38.904h.402V0h-.402zM158.239 38.904h.402V0h-.402zM160.365 38.904h1.341V0h-1.34zM164.92 38.904h.672V0h-.671zM170.329 38.904h.67V0h-.67zM180.149 38.904h1.34V0h-1.34zM174.864 38.904h2.414V0h-2.414zM201.46 38.904h1.341V0h-1.34zM216.584 38.904h2.414V0h-2.414zM190.053 38.904h.67V0h-.67zM196.514 38.904h.402V0h-.402zM193.35 38.904h.402V0h-.402zM208.833 38.904h.402V0h-.402zM214.993 38.904h.403V0h-.403zM220.303 38.904h.402V0h-.402zM212.263 38.904h.67V0h-.67zM205.67 38.904h.402V0h-.403zM186.734 38.904h.671V0h-.67zM183.78 38.904h.938V0h-.938zM228.075 38.904h.67V0h-.67zM231.338 38.904h.671V0h-.67zM239.189 38.904h1.207V0h-1.207zM243.094 38.904h2.414V0h-2.414zM236.765 38.904h.671V0h-.67zM234.275 38.904h.268V0h-.268zM222.31 38.904h.269V0h-.268zM247.362 38.904h.268V0h-.268zM249.616 38.904h.268V0h-.268zM223.715 38.904h1.34V0h-1.34z"/>
    </g>
</svg>
