<svg xmlns="http://www.w3.org/2000/svg" width="16" height="18" viewBox="0 0 16 18">
    <g fill="none" fill-rule="evenodd">
        <path d="M-4-3h24v24H-4z"/>
        <g fill="#828282" fill-rule="nonzero">
            <path d="M12.833 15.209a.322.322 0 0 1-.32.324h-.885l2.167 2.428 2.167-2.428h-.884a.322.322 0 0 1-.32-.324V9.708h-1.925v5.501zM3.53 2.912V.416L.5 3.236H3.21c.177 0 .32-.145.32-.324z"/>
            <path d="M13.795 0H4.171v2.912c0 .536-.43.971-.962.971H0v11.973c0 .179.143.324.32.324h11.022l-.674-.755a.326.326 0 0 1-.054-.348.32.32 0 0 1 .293-.192h1.283v-5.5c0-.18.144-.324.321-.324h1.604V.324a.322.322 0 0 0-.32-.324zM2.246 5.825H3.53c.177 0 .32.145.32.323a.322.322 0 0 1-.32.324H2.246a.322.322 0 0 1-.32-.324c0-.178.143-.323.32-.323zm8.983 8.413H2.246a.322.322 0 0 1-.32-.323c0-.18.143-.324.32-.324h8.983c.177 0 .32.145.32.324a.322.322 0 0 1-.32.323zm0-1.941H2.246a.322.322 0 0 1-.32-.324c0-.179.143-.324.32-.324h8.983c.177 0 .32.145.32.324a.322.322 0 0 1-.32.324zm0-1.942H2.246a.322.322 0 0 1-.32-.324c0-.178.143-.323.32-.323h8.983c.177 0 .32.145.32.323a.322.322 0 0 1-.32.324zm.641-1.942H2.246a.322.322 0 0 1-.32-.323c0-.179.143-.324.32-.324h9.624c.178 0 .321.145.321.324a.322.322 0 0 1-.32.323zm0-1.941H4.813a.322.322 0 0 1-.321-.324c0-.178.144-.323.32-.323h7.058c.178 0 .321.145.321.323a.322.322 0 0 1-.32.324z"/>
        </g>
    </g>
</svg>
