<svg xmlns="http://www.w3.org/2000/svg" width="24" height="21" viewBox="0 0 24 21">
    <g fill="none" fill-rule="evenodd">
        <path d="M0-2h24v24H0z"/>
        <g fill="#454647" fill-rule="nonzero">
            <path d="M6.966 12.162c.674 0 1.325-.043 1.941-.123V5.402a15.205 15.205 0 0 0-1.94-.122C3.118 5.28 0 6.67 0 8.384v.673c0 1.715 3.119 3.105 6.966 3.105zM6.966 15.627c.674 0 1.325-.042 1.941-.122V13.56c-.616.08-1.267.123-1.94.123-3.36 0-6.162-1.06-6.82-2.469A1.492 1.492 0 0 0 0 11.85v.673c0 1.715 3.119 3.104 6.966 3.104zM8.907 17.177v-.151c-.616.08-1.267.122-1.941.122-3.358 0-6.161-1.059-6.82-2.468a1.492 1.492 0 0 0-.146.636v.673c0 1.714 3.119 3.104 6.966 3.104.77 0 1.51-.055 2.201-.158a2.414 2.414 0 0 1-.26-1.085v-.673zM17.01.022c-3.847 0-6.966 1.39-6.966 3.105V3.8c0 1.714 3.119 3.104 6.966 3.104s6.966-1.39 6.966-3.104v-.673c0-1.715-3.119-3.105-6.966-3.105z"/>
            <path d="M17.01 8.425c-3.358 0-6.161-1.059-6.82-2.469a1.492 1.492 0 0 0-.146.636v.674c0 1.714 3.119 3.104 6.966 3.104s6.966-1.39 6.966-3.104v-.674c0-.218-.05-.43-.146-.636-.659 1.41-3.462 2.469-6.82 2.469z"/>
            <path d="M17.01 11.89c-3.358 0-6.161-1.058-6.82-2.468a1.492 1.492 0 0 0-.146.636v.673c0 1.715 3.119 3.105 6.966 3.105s6.966-1.39 6.966-3.105v-.673c0-.218-.05-.43-.146-.636-.659 1.41-3.462 2.469-6.82 2.469z"/>
            <path d="M17.01 15.544c-3.358 0-6.161-1.06-6.82-2.469a1.492 1.492 0 0 0-.146.636v.673c0 1.715 3.119 3.105 6.966 3.105s6.966-1.39 6.966-3.105v-.673c0-.218-.05-.43-.146-.636-.659 1.41-3.462 2.469-6.82 2.469z"/>
            <path d="M17.01 19.01c-3.358 0-6.161-1.06-6.82-2.469a1.492 1.492 0 0 0-.146.636v.673c0 1.714 3.119 3.104 6.966 3.104s6.966-1.39 6.966-3.104v-.673c0-.218-.05-.43-.146-.636-.659 1.41-3.462 2.468-6.82 2.468z"/>
        </g>
    </g>
</svg>
