<svg xmlns="http://www.w3.org/2000/svg" width="20" height="18" viewBox="0 0 20 18">
    <g fill="none" fill-rule="evenodd">
        <path fill="#5B84EC" fill-rule="nonzero" d="M19.284 8.165a2.245 2.245 0 0 0-1.626-.662h-.767V4.506c0-.312-.08-.655-.24-1.03-.16-.374-.352-.671-.576-.89L14.25.807c-.224-.218-.527-.406-.911-.562-.384-.156-.736-.234-1.056-.234H4.223c-.32 0-.592.11-.816.328a1.07 1.07 0 0 0-.336.796v6.368h-.768c-.632 0-1.173.22-1.625.662C.226 8.605 0 9.135 0 9.75v4.87c0 .101.038.189.114.263a.374.374 0 0 0 .27.111H3.07v1.873c0 .312.112.578.336.796.224.219.496.328.816.328h11.516c.32 0 .592-.11.816-.328.224-.218.336-.484.336-.796v-1.873h2.687a.374.374 0 0 0 .27-.11.356.356 0 0 0 .113-.264V9.75c0-.617-.225-1.146-.677-1.586zm-3.929 8.329H4.607v-2.997h10.748v2.997zm0-7.492H4.607V1.51h7.677v1.872c0 .313.112.578.336.797.224.218.496.327.816.327h1.919v4.496zm2.843 1.275a.747.747 0 0 1-.54.223.747.747 0 0 1-.54-.223.711.711 0 0 1-.227-.526c0-.203.076-.379.228-.527a.747.747 0 0 1 .54-.223c.207 0 .387.075.54.223a.712.712 0 0 1 .227.527.711.711 0 0 1-.228.526z"/>
        <path d="M-2-3h24v24H-2z"/>
    </g>
</svg>
