<svg xmlns="http://www.w3.org/2000/svg" width="36" height="36" viewBox="0 0 36 36">
    <g fill="none" fill-rule="evenodd">
        <circle cx="18" cy="18" r="18" fill="#EAEAEA"/>
        <g fill-rule="nonzero">
            <path fill="#FFF" d="M18 16.242A1.76 1.76 0 0 0 16.242 18c0 .97.789 1.758 1.758 1.758A1.76 1.76 0 0 0 19.758 18 1.76 1.76 0 0 0 18 16.242z"/>
            <path fill="#828282" d="M27.6 16.273l-2.411-.791a7.42 7.42 0 0 0-.326-.784l1.119-2.236a.586.586 0 0 0-.11-.677l-1.657-1.657a.586.586 0 0 0-.677-.11l-2.236 1.119a7.416 7.416 0 0 0-.784-.326l-.79-2.41A.585.585 0 0 0 19.171 8h-2.344a.585.585 0 0 0-.556.4l-.79 2.411a7.42 7.42 0 0 0-.784.326l-2.236-1.119a.584.584 0 0 0-.677.11l-1.657 1.657a.586.586 0 0 0-.11.677l1.119 2.236a7.416 7.416 0 0 0-.326.784l-2.41.79c-.24.08-.401.304-.401.556v2.344c0 .252.161.476.4.555l2.411.791c.093.265.202.527.326.784l-1.119 2.236a.586.586 0 0 0 .11.677l1.657 1.657c.18.179.452.223.677.11l2.236-1.119c.257.124.519.233.784.326l.79 2.41c.08.24.304.401.556.401h2.344a.585.585 0 0 0 .555-.4l.791-2.411a7.42 7.42 0 0 0 .784-.326l2.236 1.119a.588.588 0 0 0 .677-.11l1.657-1.657a.586.586 0 0 0 .11-.677l-1.119-2.236c.124-.257.233-.519.326-.784l2.41-.79c.24-.08.401-.304.401-.556v-2.344a.585.585 0 0 0-.4-.556zM18 22.102A4.107 4.107 0 0 1 13.898 18 4.107 4.107 0 0 1 18 13.898 4.107 4.107 0 0 1 22.102 18 4.107 4.107 0 0 1 18 22.102z"/>
        </g>
    </g>
</svg>
