<svg xmlns="http://www.w3.org/2000/svg" width="20" height="20" viewBox="0 0 20 20">
    <g fill="none" fill-rule="evenodd">
        <path fill="#5B84EC" d="M14.438 12.75h-.89l-.314-.304A7.28 7.28 0 0 0 15 7.688 7.312 7.312 0 1 0 7.687 15a7.28 7.28 0 0 0 4.76-1.766l.303.315v.889l5.625 5.613 1.676-1.676-5.613-5.625zm-6.75 0a5.056 5.056 0 0 1-5.063-5.063 5.056 5.056 0 0 1 5.063-5.062 5.056 5.056 0 0 1 5.062 5.063 5.056 5.056 0 0 1-5.063 5.062z"/>
        <path d="M-3-3h27v27H-3z"/>
    </g>
</svg>
