<svg xmlns="http://www.w3.org/2000/svg" width="20" height="20" viewBox="0 0 20 20">
    <g fill="none" fill-rule="evenodd">
        <path d="M-2-2h24v24H-2z"/>
        <g fill="#5B84EC" fill-rule="nonzero">
            <path d="M14.803 6.44a.467.467 0 0 0-.642 0l-8.633 8.641a.455.455 0 0 0 .118.728l.709.355v1.193l-2.172.622-2.192-2.194.621-2.173h1.193l.354.709a.455.455 0 0 0 .727.118l8.634-8.64a.454.454 0 0 0 0-.643l-1.67-1.67a.453.453 0 0 0-.32-.134h-.002a.454.454 0 0 0-.32.134l-9.26 9.352c-.005.004-.005.011-.01.016a.444.444 0 0 0-.105.179l-.788 2.76-1.028 3.6a.455.455 0 0 0 .562.561l3.597-1.028 2.757-.789c.008-.002.014-.008.022-.011.029-.01.054-.026.08-.042.026-.015.052-.029.074-.049.006-.005.014-.007.02-.012l9.342-9.268a.455.455 0 0 0 .002-.644l-1.67-1.67zM19.44 3.241L16.716.515c-.686-.686-1.88-.688-2.568.002l-1.663 1.679a.454.454 0 0 0 .001.641l4.634 4.638a.452.452 0 0 0 .64.001l1.68-1.665c.343-.344.532-.8.532-1.285 0-.485-.19-.941-.532-1.285z"/>
        </g>
    </g>
</svg>
