<svg xmlns="http://www.w3.org/2000/svg" width="22" height="23" viewBox="0 0 22 23">
    <g fill="none" fill-rule="evenodd">
        <g fill="#5B84EC" fill-rule="nonzero">
            <path d="M16.467 4.712c.846 0 1.532-.689 1.532-1.546V1.55C17.999.69 17.314 0 16.467 0c-.848 0-1.532.69-1.532 1.549v1.618c0 .856.685 1.545 1.532 1.545z"/>
            <path d="M21.91 2.679h-3.084v.787c0 1.3-1.045 2.358-2.333 2.358-1.29 0-2.332-1.058-2.332-2.358V2.68H7.937v.787c0 1.3-1.046 2.358-2.334 2.358-1.287 0-2.333-1.058-2.333-2.358V2.68l-3.112-.04v19.687H20.38l1.554-.005L21.91 2.68zm-1.532 18.08H1.714V8.181H20.38v12.576h-.002z"/>
            <path d="M5.579 4.712c.847 0 1.533-.689 1.533-1.546V1.55C7.112.69 6.426 0 5.58 0c-.847 0-1.531.69-1.531 1.549v1.618c0 .856.684 1.545 1.53 1.545zM7.941 9.869h2.451v2.187H7.941zM11.904 9.869h2.453v2.187h-2.453zM15.58 9.869h2.451v2.187H15.58zM7.941 13.5h2.451v2.185H7.941zM11.904 13.5h2.453v2.185h-2.453zM15.58 13.5h2.451v2.185H15.58zM7.941 17.203h2.451v2.185H7.941zM4.048 13.5h2.45v2.185h-2.45zM4.048 17.203h2.45v2.185h-2.45zM11.904 17.203h2.453v2.185h-2.453zM15.58 17.203h2.451v2.185H15.58z"/>
        </g>
        <path d="M-1 0h24v24H-1z"/>
    </g>
</svg>
