<svg xmlns="http://www.w3.org/2000/svg" width="20" height="20" viewBox="0 0 20 20">
    <path fill="#828282" fill-rule="nonzero" d="M9.986 0C4.47 0 0 4.472 0 9.988c0 5.515 4.47 9.987 9.986 9.987 5.518 0 9.989-4.473 9.989-9.987C19.975 4.472 15.504 0 9.985 0zm4.294 12.692l-1.59 1.589s-2.517-2.7-2.705-2.7c-.185 0-2.702 2.7-2.702 2.7L5.69 12.692s2.703-2.48 2.703-2.7c0-.225-2.703-2.706-2.703-2.706l1.592-1.592S9.82 8.396 9.985 8.396c.166 0 2.704-2.702 2.704-2.702l1.591 1.592s-2.704 2.517-2.704 2.705c0 .18 2.704 2.701 2.704 2.701z"/>
</svg>
