<svg xmlns="http://www.w3.org/2000/svg" width="22" height="22" viewBox="0 0 22 22">
    <g fill="none" fill-rule="evenodd">
        <path d="M-1-1h24v24H-1z"/>
        <g fill="#454647" fill-rule="nonzero">
            <path d="M14.2 11.645c-.3 1.469-1.644 2.578-3.2 2.578a3.228 3.228 0 0 1-3.157-2.578h-1.29c.317 2.18 2.18 3.867 4.447 3.867s4.173-1.687 4.49-3.867H14.2z"/>
            <path d="M16.779 11.645A5.83 5.83 0 0 1 11 16.8c-2.978 0-5.41-2.264-5.736-5.156H0v.644c0 .278.178.524.441.612l2.652.865c.112.316.23.604.355.87l-1.223 2.458a.644.644 0 0 0 .121.743l1.817 1.817a.645.645 0 0 0 .743.121l2.458-1.223c.266.126.554.243.87.355l.865 2.652a.645.645 0 0 0 .612.441h2.621a.645.645 0 0 0 .612-.441l.865-2.652c.316-.112.604-.23.87-.355l2.458 1.223a.644.644 0 0 0 .743-.121l1.817-1.817a.644.644 0 0 0 .121-.743l-1.223-2.458c.126-.266.243-.554.355-.87l2.609-.865a.645.645 0 0 0 .441-.612v-.644h-5.221z"/>
            <path d="M9.185 11.645A1.93 1.93 0 0 0 11 12.934c.84 0 1.59-.54 1.858-1.29H9.185zM11 0a2.58 2.58 0 0 0-2.578 2.578A2.58 2.58 0 0 0 11 5.156c1.422 0 2.621-1.156 2.621-2.578S12.421 0 11 0zM17.488 0a2.58 2.58 0 0 0-2.578 2.578 2.58 2.58 0 0 0 2.578 2.578 2.58 2.58 0 0 0 2.578-2.578A2.58 2.58 0 0 0 17.488 0zM4.555 0a2.58 2.58 0 0 0-2.578 2.578 2.58 2.58 0 0 0 2.578 2.578 2.58 2.58 0 0 0 2.578-2.578A2.58 2.58 0 0 0 4.555 0zM19.687 5.753a3.84 3.84 0 0 1-4.39.006 4.693 4.693 0 0 0-.8.565 5.889 5.889 0 0 1 2.307 4.031H22v-.644c0-1.685-.94-3.184-2.313-3.958zM11 6.445c-2.27 0-4.152 1.727-4.466 3.91h8.975c-.314-2.183-2.24-3.91-4.509-3.91zM6.746 5.759a3.84 3.84 0 0 1-4.39-.006C.983 6.527 0 8.026 0 9.71v.644h5.239a5.889 5.889 0 0 1 2.307-4.031 4.695 4.695 0 0 0-.8-.565z"/>
        </g>
    </g>
</svg>
