<svg xmlns="http://www.w3.org/2000/svg" width="14" height="19" viewBox="0 0 14 19">
    <g fill="#828282" fill-rule="nonzero">
        <path d="M1.64 18.06a.949.949 0 0 0 .944.916h8.809a.949.949 0 0 0 .942-.915l.63-13.44H1.012l.629 13.44zM8.98 7.96c0-.214.172-.388.384-.388h.613c.212 0 .383.174.383.388v7.679a.386.386 0 0 1-.383.388h-.613a.386.386 0 0 1-.383-.388V7.959zm-2.682 0c0-.214.172-.388.384-.388h.613c.211 0 .383.174.383.388v7.679a.386.386 0 0 1-.383.388h-.613a.386.386 0 0 1-.384-.388V7.959zm-2.682 0c0-.214.171-.388.383-.388h.613c.212 0 .383.174.383.388v7.679a.386.386 0 0 1-.383.388H4a.386.386 0 0 1-.383-.388V7.959zM13.383.978H9.32V.2c0-.11-.089-.2-.198-.2H4.854c-.109 0-.197.09-.197.2v.778H.593A.596.596 0 0 0 0 1.577v1.882h13.975V1.577c0-.331-.266-.6-.593-.6z"/>
    </g>
</svg>
