<svg xmlns="http://www.w3.org/2000/svg" width="18" height="16" viewBox="0 0 18 16">
    <g fill="none" fill-rule="evenodd">
        <g fill="#828282" fill-rule="nonzero">
            <path d="M17.798 4.615L9.173.043a.373.373 0 0 0-.347 0L.201 4.615a.382.382 0 0 0 0 .675L8.828 9.86a.365.365 0 0 0 .346 0l8.625-4.571A.381.381 0 0 0 18 4.952a.381.381 0 0 0-.202-.337z"/>
            <path d="M17.798 7.662l-1.427-.756-6.851 3.63a1.114 1.114 0 0 1-1.037.002L1.628 6.906l-1.427.756A.381.381 0 0 0 0 8c0 .142.078.272.202.337l8.625 4.572a.365.365 0 0 0 .346 0l8.625-4.572A.381.381 0 0 0 18 8a.381.381 0 0 0-.202-.338z"/>
            <path d="M17.798 10.71l-1.427-.757-6.851 3.632a1.114 1.114 0 0 1-1.037.001L1.628 9.953l-1.427.757a.381.381 0 0 0-.202.337c0 .143.078.272.202.338l8.625 4.571a.365.365 0 0 0 .346 0l8.625-4.571a.381.381 0 0 0 .202-.338.381.381 0 0 0-.202-.337z"/>
        </g>
        <path d="M-3-4h24v24H-3z"/>
    </g>
</svg>
