<svg xmlns="http://www.w3.org/2000/svg" width="36" height="36" viewBox="0 0 36 36">
    <g fill="none" fill-rule="evenodd">
        <circle cx="18" cy="18" r="18" fill="#EAEAEA"/>
        <path fill="#828282" d="M23.063 21.375h-.89l-.314-.304a7.28 7.28 0 0 0 1.766-4.759 7.312 7.312 0 1 0-7.313 7.313 7.28 7.28 0 0 0 4.76-1.766l.303.315v.889L27 28.675 28.676 27l-5.613-5.625zm-6.75 0a5.056 5.056 0 0 1-5.063-5.063 5.056 5.056 0 0 1 5.063-5.062 5.056 5.056 0 0 1 5.062 5.063 5.056 5.056 0 0 1-5.063 5.062z"/>
        <path d="M5 5h27v27H5z"/>
    </g>
</svg>
