<svg xmlns="http://www.w3.org/2000/svg" width="21" height="24" viewBox="0 0 21 24">
    <g fill="none" fill-rule="evenodd">
        <path d="M-2 0h24v24H-2z"/>
        <g fill="#454647" fill-rule="nonzero">
            <path d="M10.5 16.922c-.351 0-.697-.024-1.036-.07l.49 1.476h1.092l.49-1.477c-.34.047-.685.07-1.036.07zM13.15 16.433l-.872 2.626L13.496 24H15.4v-8.877a7.661 7.661 0 0 1-2.25 1.31zM7.85 16.433a7.662 7.662 0 0 1-2.25-1.31V24h1.904l1.218-4.94-.872-2.627zM17.082 13.18c-.085.142-.188.272-.282.408V24h3.5c.387 0 .7-.314.7-.703V19.03a6.332 6.332 0 0 0-3.918-5.851zM3.918 13.18A6.332 6.332 0 0 0 0 19.031v4.266c0 .389.313.703.7.703h3.5V13.588c-.094-.136-.197-.266-.282-.408zM11.003 19.734H9.997L8.947 24h3.107zM4.27 9.89c.354 3.156 2.996 5.626 6.23 5.626a6.253 6.253 0 0 0 6.231-5.625H4.271zM16.8 5.672h-.381A6.261 6.261 0 0 0 13.3 2.168v1.409c0 .38-.307.689-.686.689h-.028a.688.688 0 0 1-.686-.69V1.454C11.9.678 11.272 0 10.5 0c-.772 0-1.4.678-1.4 1.453v2.124c0 .38-.307.689-.686.689a.716.716 0 0 1-.714-.718V2.164a6.27 6.27 0 0 0-3.119 3.508H4.2c-.773 0-1.4.63-1.4 1.406 0 .777.627 1.406 1.4 1.406h12.6c.773 0 1.4-.63 1.4-1.406 0-.777-.627-1.406-1.4-1.406z"/>
        </g>
    </g>
</svg>
