<svg xmlns="http://www.w3.org/2000/svg" width="20" height="14" viewBox="0 0 20 14">
    <g fill="none" fill-rule="evenodd">
        <path fill="#CEDCFF" fill-rule="nonzero" d="M.41 13.923a.41.41 0 0 0 .367-.225c.024-.046 1.903-3.513 9.745-3.631v3.448c0 .156.088.298.228.366.14.069.307.053.431-.042l8.593-6.553a.408.408 0 0 0 0-.648L11.18.084a.413.413 0 0 0-.431-.042.407.407 0 0 0-.229.365v3.635a12.64 12.64 0 0 0-.796-.025C6.8 4.017 0 4.943 0 13.514a.408.408 0 0 0 .41.41z"/>
        <path d="M-2-5h24v24H-2z"/>
    </g>
</svg>
