<svg xmlns="http://www.w3.org/2000/svg" width="20" height="24" viewBox="0 0 20 24">
    <g fill="none" fill-rule="evenodd">
        <path d="M-2 0h24v24H-2z"/>
        <g fill-rule="nonzero">
            <path fill="#454647" d="M11.637 15.942a1.145 1.145 0 0 0-.321-.233 3.885 3.885 0 0 0-.814-.286v2.146c.451-.05.97-.214 1.206-.633a.978.978 0 0 0 .09-.67.673.673 0 0 0-.16-.324zM11.726 16.963l.005-.007a.474.474 0 0 0-.005.007zM8.386 12.51a.902.902 0 0 0-.093.795.67.67 0 0 0 .26.285c.12.082.252.146.387.2.113.045.24.088.377.13v-1.942c-.346.073-.724.23-.931.532zM11.742 16.935l-.016.028.016-.028zM11.75 16.922c.001-.003.001-.003 0 0z"/>
            <path fill="#454647" d="M11.26 5.222c1.832-1.534 3.056-4.989 2.303-5.14-1-.2-3.174.68-4.224.835-1.49.18-3.113-1.61-4.024-.613-.74.811.531 3.76 2.52 5.046C1.902 8.257-6.44 22.852 8.113 23.91c20.136 1.465 10.053-15.856 3.149-18.69zm1.73 11.51a2.108 2.108 0 0 1-.817 1.433c-.477.369-1.076.54-1.671.588v.63a.593.593 0 0 1-1.185 0v-.688a3.894 3.894 0 0 1-.303-.07 2.91 2.91 0 0 1-1.449-.888 2.601 2.601 0 0 1-.52-.95c-.02-.065-.04-.13-.047-.199a.589.589 0 0 1 .642-.647c.232.02.436.181.51.402.022.068.037.138.063.205.025.067.055.132.09.194.071.122.16.234.26.332.21.2.477.331.754.409v-2.336c-.543-.14-1.104-.321-1.553-.669a1.802 1.802 0 0 1-.524-.628 1.96 1.96 0 0 1-.183-.845 2.008 2.008 0 0 1 .664-1.52c.436-.4 1.015-.624 1.597-.706v-.652a.593.593 0 0 1 1.184 0v.649c.077.01.155.021.231.035.571.103 1.13.338 1.547.748a2.252 2.252 0 0 1 .557.894c.022.069.045.14.056.21a.59.59 0 0 1-.612.677.597.597 0 0 1-.527-.378c-.025-.064-.037-.133-.063-.197a1.128 1.128 0 0 0-.377-.478c-.237-.175-.524-.266-.812-.317v2.235c.342.082.684.17 1.012.3.495.194.964.493 1.234.963a5.532 5.532 0 0 1 .002.003c.082.144.043.075.001.003a2.1 2.1 0 0 1 .24 1.258z"/>
            <path fill="#000" d="M11.724 16.966l-.015.028.015-.028z"/>
        </g>
    </g>
</svg>
