<svg xmlns="http://www.w3.org/2000/svg" width="24" height="24" viewBox="0 0 24 24">
    <g fill="#5B84EC" fill-rule="nonzero">
        <path d="M11.954 23.907c6.59 0 11.953-5.362 11.953-11.953C23.907 5.362 18.545 0 11.954 0 5.363 0 0 5.362 0 11.954c0 6.59 5.363 11.953 11.954 11.953zm0-22.27c5.689 0 10.317 4.628 10.317 10.317S17.643 22.27 11.954 22.27c-5.69 0-10.317-4.628-10.317-10.317 0-5.69 4.628-10.318 10.317-10.318z"/>
        <path d="M10.348 17.073a.818.818 0 0 0 1.157-1.157l-3.144-3.144h9.105a.818.818 0 0 0 0-1.637l-9.105.001 3.145-3.145a.818.818 0 0 0-1.157-1.157l-4.542 4.541a.818.818 0 0 0 0 1.158l4.541 4.54z"/>
    </g>
</svg>
