<svg xmlns="http://www.w3.org/2000/svg" width="20" height="18" viewBox="0 0 20 18">
    <g fill="none" fill-rule="evenodd">
        <path d="M-2-3h24v24H-2z"/>
        <path fill="#5B84EC" fill-rule="nonzero" d="M19.323 4.826L15.197.703A2.358 2.358 0 0 0 13.559.02c-.614 0-1.197.238-1.638.682L.677 11.963A2.26 2.26 0 0 0 0 13.596c0 .619.236 1.205.677 1.634l2.63 2.648a.31.31 0 0 0 .22.095h11.008a.317.317 0 0 0 0-.634h-4.44l9.212-9.23a2.323 2.323 0 0 0 .016-3.283zM9.213 17.34h-5.56L1.119 14.8a1.696 1.696 0 0 1-.488-1.205c0-.46.173-.872.488-1.205l5.528-5.52 6.504 6.519-3.937 3.949z"/>
    </g>
</svg>
