<svg xmlns="http://www.w3.org/2000/svg" width="20" height="14" viewBox="0 0 20 14">
    <g fill="none" fill-rule="evenodd">
        <path fill="#5B84EC" fill-rule="nonzero" d="M19.524 13.923a.41.41 0 0 1-.366-.225c-.024-.046-1.903-3.513-9.745-3.631v3.448a.412.412 0 0 1-.66.324L.162 7.286a.408.408 0 0 1 0-.648L8.754.084a.413.413 0 0 1 .43-.042c.14.068.23.21.23.365v3.635c.207-.013.477-.025.796-.025 2.924 0 9.725.926 9.725 9.497a.408.408 0 0 1-.41.41z"/>
        <path d="M-2-5h24v24H-2z"/>
    </g>
</svg>
