<svg xmlns="http://www.w3.org/2000/svg" xmlns:xlink="http://www.w3.org/1999/xlink" width="184" height="55" viewBox="0 0 184 55">
    <defs>
        <path id="a" d="M.054.173H23.56v22.801H.054z"/>
    </defs>
    <g fill="none" fill-rule="evenodd">
        <path fill="#000" d="M34.31 50.904h-5.528V28.103H43.97v3.961h-9.66v5.88h8.99v3.946h-8.99zM62.113 41.422a1441.491 1441.491 0 0 1-3-8.344 20.822 20.822 0 0 1-.48-1.528c-.398 1.33-1.54 4.621-3.425 9.872h6.905zm3.262 9.482l-1.92-5.427h-9.661l-1.921 5.427h-6.054L55.17 28.01h6.87l9.388 22.895h-6.054zM80.383 40.97v5.942h3.66c1.547 0 2.69-.255 3.426-.765.737-.51 1.106-1.289 1.106-2.34 0-1.891-1.571-2.838-4.712-2.838h-3.48zm0-3.837h3.262c1.522 0 2.625-.203 3.308-.608.682-.406 1.024-1.077 1.024-2.012 0-.874-.371-1.5-1.115-1.88-.743-.379-1.919-.569-3.525-.569h-2.954v5.069zm-5.62-9.03h8.248c3.757 0 6.485.46 8.183 1.38 1.697.92 2.547 2.384 2.547 4.39 0 1.363-.372 2.48-1.116 3.354-.743.873-1.73 1.398-2.962 1.575v.156c1.679.322 2.89.925 3.633 1.809.743.884 1.115 2.058 1.115 3.524 0 2.08-.873 3.702-2.62 4.866-1.745 1.165-4.116 1.747-7.113 1.747h-9.914V28.103zM110.922 50.904l-6.38-17.888h-.163c.23 3.639.345 6.067.345 7.283v10.605h-5.02V28.103h7.648l6.27 17.436h.11l6.651-17.436h7.649v22.801h-5.238V40.112c0-.51.009-1.097.027-1.763.018-.665.1-2.433.244-5.302h-.162l-6.833 17.857h-5.148zM147.66 41.422a1441.496 1441.496 0 0 1-2.999-8.344 20.822 20.822 0 0 1-.48-1.528c-.399 1.33-1.54 4.621-3.425 9.872h6.905zm3.263 9.482l-1.92-5.427h-9.661l-1.921 5.427h-6.054l9.352-22.895h6.87l9.388 22.895h-6.054z"/>
        <g transform="translate(160.258 27.93)">
            <mask id="b" fill="#fff">
                <use xlink:href="#a"/>
            </mask>
            <path fill="#000" d="M23.561 22.974h-7.14L4.892 5.725H4.73c.23 3.047.344 5.22.344 6.52v10.73H.054V.172H7.14l11.51 17.078h.126c-.18-2.963-.271-5.059-.271-6.286V.173h5.056v22.801z" mask="url(#b)"/>
        </g>
        <path fill="#CD0000" d="M31.356 12.696L12.218 23.128c-.203.11-.462-.023-.462-.238v-7.628c0-1.906 1.097-3.673 2.893-4.658L33.539.23c.203-.112.462.021.462.237v7.985c0 1.738-1.004 3.349-2.645 4.243M27.337 26.857L12.218 35.21c-.203.11-.462-.023-.462-.238v-7.628c0-1.906 1.097-3.672 2.893-4.658l14.87-8.294c.204-.111.464.022.464.237v7.985c0 1.738-1.004 3.349-2.646 4.243M0 23.398v19.584c.002.208.27.325.48.21l7.585-4.11c1.853-1.027 2.98-2.78 2.972-4.621l-.088-19.372c0-.208-.27-.326-.48-.21l-7.766 4.302C1.012 20.118-.014 21.718 0 23.398M0 46.914v7.064c.002.208.27.325.48.209l7.585-4.238c1.853-1.026 2.98-2.779 2.972-4.62l-.088-6.724c0-.208-.27-.326-.48-.21l-7.766 4.302C1.012 43.634-.014 45.234 0 46.914"/>
    </g>
</svg>
