<svg xmlns="http://www.w3.org/2000/svg" xmlns:xlink="http://www.w3.org/1999/xlink" width="90" height="143" viewBox="0 0 90 143">
    <defs>
        <path id="prefix__a" d="M0 0L29.216 0 29.216 75.158 0 75.158z"/>
        <path id="prefix__c" d="M0 0L29.216 0 29.216 42.028 0 42.028z"/>
    </defs>
    <g fill="none" fill-rule="evenodd">
        <path fill="#CD0000" d="M82.999 33.091L32.34 60.694c-.538.293-1.223-.06-1.223-.63V39.88c0-5.042 2.904-9.717 7.656-12.325l50-27.447C89.315-.189 90 .163 90 .734v21.128c0 4.6-2.658 8.862-7.001 11.23M72.361 70.563l-40.02 22.1c-.538.294-1.223-.058-1.223-.628V71.85c0-5.042 2.904-9.717 7.657-12.326l39.362-21.945c.54-.296 1.226.056 1.226.627v21.128c0 4.6-2.658 8.862-7.002 11.229"/>
        <g transform="translate(0 38.746)">
            <mask id="prefix__b" fill="#fff">
                <use xlink:href="#prefix__a"/>
            </mask>
            <path fill="#CD0000" d="M0 22.662v51.822c.005.55.716.86 1.271.553l20.077-10.875c4.906-2.717 7.89-7.354 7.868-12.226L28.982.677c-.002-.552-.716-.863-1.27-.556L7.154 11.504C2.678 13.983-.036 18.218.001 22.662" mask="url(#prefix__b)"/>
        </g>
        <g transform="translate(0 100.972)">
            <mask id="prefix__d" fill="#fff">
                <use xlink:href="#prefix__c"/>
            </mask>
            <path fill="#CD0000" d="M0 22.662v18.691c.005.55.716.86 1.271.554l20.077-11.213c4.906-2.717 7.89-7.353 7.868-12.225L28.982.677c-.002-.552-.716-.864-1.27-.555L7.154 11.505C2.678 13.983-.036 18.218.001 22.662" mask="url(#prefix__d)"/>
        </g>
    </g>
</svg>
